<mxfile host="Electron" agent="Mozilla/5.0 (Windows NT 10.0; Win64; x64) AppleWebKit/537.36 (KHTML, like Gecko) draw.io/27.0.9 Chrome/134.0.6998.205 Electron/35.4.0 Safari/537.36" version="27.0.9">
  <diagram name="Page-1" id="fD8wBhgy0fDHsV_MByAn">
    <mxGraphModel dx="1892" dy="1726" grid="1" gridSize="10" guides="1" tooltips="1" connect="1" arrows="1" fold="1" page="1" pageScale="1" pageWidth="850" pageHeight="1100" math="0" shadow="0">
      <root>
        <mxCell id="0" />
        <mxCell id="1" parent="0" />
        <mxCell id="EaDXwgWP2bAekZSx6mFR-11" value="crm_cust_info" style="swimlane;fontStyle=0;childLayout=stackLayout;horizontal=1;startSize=30;horizontalStack=0;resizeParent=1;resizeParentMax=0;resizeLast=0;collapsible=1;marginBottom=0;whiteSpace=wrap;html=1;rounded=1;fillColor=#1ba1e2;fontColor=#ffffff;strokeColor=#006EAF;fontSize=24;" vertex="1" parent="1">
          <mxGeometry x="210" y="330" width="230" height="110" as="geometry" />
        </mxCell>
        <mxCell id="EaDXwgWP2bAekZSx6mFR-12" value="&lt;div&gt;&lt;span style=&quot;background-color: transparent; color: light-dark(rgb(0, 0, 0), rgb(255, 255, 255));&quot;&gt;cst_id&lt;/span&gt;&lt;/div&gt;" style="text;strokeColor=none;fillColor=none;align=left;verticalAlign=middle;spacingLeft=4;spacingRight=4;overflow=hidden;points=[[0,0.5],[1,0.5]];portConstraint=eastwest;rotatable=0;whiteSpace=wrap;html=1;fontSize=24;" vertex="1" parent="EaDXwgWP2bAekZSx6mFR-11">
          <mxGeometry y="30" width="230" height="40" as="geometry" />
        </mxCell>
        <mxCell id="EaDXwgWP2bAekZSx6mFR-29" value="&lt;div&gt;&lt;span style=&quot;background-color: transparent; color: light-dark(rgb(0, 0, 0), rgb(255, 255, 255));&quot;&gt;cst_key&lt;/span&gt;&lt;/div&gt;" style="text;strokeColor=none;fillColor=none;align=left;verticalAlign=middle;spacingLeft=4;spacingRight=4;overflow=hidden;points=[[0,0.5],[1,0.5]];portConstraint=eastwest;rotatable=0;whiteSpace=wrap;html=1;fontSize=24;" vertex="1" parent="EaDXwgWP2bAekZSx6mFR-11">
          <mxGeometry y="70" width="230" height="40" as="geometry" />
        </mxCell>
        <mxCell id="EaDXwgWP2bAekZSx6mFR-17" value="crm_prd_info" style="swimlane;fontStyle=0;childLayout=stackLayout;horizontal=1;startSize=30;horizontalStack=0;resizeParent=1;resizeParentMax=0;resizeLast=0;collapsible=1;marginBottom=0;whiteSpace=wrap;html=1;rounded=1;fillColor=#1ba1e2;fontColor=#ffffff;strokeColor=#006EAF;fontSize=24;" vertex="1" parent="1">
          <mxGeometry x="210" y="170" width="230" height="70" as="geometry" />
        </mxCell>
        <mxCell id="EaDXwgWP2bAekZSx6mFR-18" value="prd_Key" style="text;strokeColor=none;fillColor=none;align=left;verticalAlign=middle;spacingLeft=4;spacingRight=4;overflow=hidden;points=[[0,0.5],[1,0.5]];portConstraint=eastwest;rotatable=0;whiteSpace=wrap;html=1;fontSize=24;" vertex="1" parent="EaDXwgWP2bAekZSx6mFR-17">
          <mxGeometry y="30" width="230" height="40" as="geometry" />
        </mxCell>
        <mxCell id="EaDXwgWP2bAekZSx6mFR-19" value="&lt;font style=&quot;font-size: 20px;&quot;&gt;Current &amp;amp; History Product Information&lt;/font&gt;" style="text;html=1;align=center;verticalAlign=middle;whiteSpace=wrap;rounded=0;" vertex="1" parent="1">
          <mxGeometry x="145" y="140" width="360" height="30" as="geometry" />
        </mxCell>
        <mxCell id="EaDXwgWP2bAekZSx6mFR-20" value="crm_sales_details" style="swimlane;fontStyle=0;childLayout=stackLayout;horizontal=1;startSize=30;horizontalStack=0;resizeParent=1;resizeParentMax=0;resizeLast=0;collapsible=1;marginBottom=0;whiteSpace=wrap;html=1;rounded=1;fillColor=#1ba1e2;fontColor=#ffffff;strokeColor=#006EAF;fontSize=24;" vertex="1" parent="1">
          <mxGeometry x="-85" y="230" width="230" height="110" as="geometry" />
        </mxCell>
        <mxCell id="EaDXwgWP2bAekZSx6mFR-21" value="prd_key" style="text;strokeColor=none;fillColor=none;align=left;verticalAlign=middle;spacingLeft=4;spacingRight=4;overflow=hidden;points=[[0,0.5],[1,0.5]];portConstraint=eastwest;rotatable=0;whiteSpace=wrap;html=1;fontSize=24;" vertex="1" parent="EaDXwgWP2bAekZSx6mFR-20">
          <mxGeometry y="30" width="230" height="40" as="geometry" />
        </mxCell>
        <mxCell id="EaDXwgWP2bAekZSx6mFR-23" value="cst_id" style="text;strokeColor=none;fillColor=none;align=left;verticalAlign=middle;spacingLeft=4;spacingRight=4;overflow=hidden;points=[[0,0.5],[1,0.5]];portConstraint=eastwest;rotatable=0;whiteSpace=wrap;html=1;fontSize=24;" vertex="1" parent="EaDXwgWP2bAekZSx6mFR-20">
          <mxGeometry y="70" width="230" height="40" as="geometry" />
        </mxCell>
        <mxCell id="EaDXwgWP2bAekZSx6mFR-22" value="&lt;font style=&quot;font-size: 20px;&quot;&gt;Transactional Records about&lt;/font&gt;&lt;div&gt;&lt;font style=&quot;font-size: 20px;&quot;&gt;&amp;nbsp;Sales &amp;amp; Orders&lt;/font&gt;&lt;/div&gt;" style="text;html=1;align=center;verticalAlign=middle;whiteSpace=wrap;rounded=0;" vertex="1" parent="1">
          <mxGeometry x="-150" y="190" width="360" height="30" as="geometry" />
        </mxCell>
        <mxCell id="EaDXwgWP2bAekZSx6mFR-24" style="edgeStyle=orthogonalEdgeStyle;rounded=0;orthogonalLoop=1;jettySize=auto;html=1;" edge="1" parent="1" source="EaDXwgWP2bAekZSx6mFR-23" target="EaDXwgWP2bAekZSx6mFR-12">
          <mxGeometry relative="1" as="geometry" />
        </mxCell>
        <mxCell id="EaDXwgWP2bAekZSx6mFR-28" style="edgeStyle=orthogonalEdgeStyle;rounded=0;orthogonalLoop=1;jettySize=auto;html=1;" edge="1" parent="1" source="EaDXwgWP2bAekZSx6mFR-21" target="EaDXwgWP2bAekZSx6mFR-18">
          <mxGeometry relative="1" as="geometry" />
        </mxCell>
        <mxCell id="EaDXwgWP2bAekZSx6mFR-16" value="&lt;font style=&quot;font-size: 20px;&quot;&gt;Customer Information&lt;/font&gt;" style="text;html=1;align=center;verticalAlign=middle;whiteSpace=wrap;rounded=0;" vertex="1" parent="1">
          <mxGeometry x="172.5" y="300" width="305" height="30" as="geometry" />
        </mxCell>
        <mxCell id="EaDXwgWP2bAekZSx6mFR-31" value="erp_cust_az12" style="swimlane;fontStyle=0;childLayout=stackLayout;horizontal=1;startSize=30;horizontalStack=0;resizeParent=1;resizeParentMax=0;resizeLast=0;collapsible=1;marginBottom=0;whiteSpace=wrap;html=1;rounded=1;fillColor=#a0522d;fontColor=#ffffff;strokeColor=#FFCCCC;fontSize=24;" vertex="1" parent="1">
          <mxGeometry x="712.5" y="310" width="230" height="70" as="geometry" />
        </mxCell>
        <mxCell id="EaDXwgWP2bAekZSx6mFR-32" value="cid" style="text;strokeColor=none;fillColor=none;align=left;verticalAlign=middle;spacingLeft=4;spacingRight=4;overflow=hidden;points=[[0,0.5],[1,0.5]];portConstraint=eastwest;rotatable=0;whiteSpace=wrap;html=1;fontSize=24;" vertex="1" parent="EaDXwgWP2bAekZSx6mFR-31">
          <mxGeometry y="30" width="230" height="40" as="geometry" />
        </mxCell>
        <mxCell id="EaDXwgWP2bAekZSx6mFR-34" value="&lt;span style=&quot;font-size: 20px;&quot;&gt;Extra Customer Infromation(Birthdate)&lt;/span&gt;" style="text;html=1;align=center;verticalAlign=middle;whiteSpace=wrap;rounded=0;fillColor=none;fontColor=#ffffff;strokeColor=none;" vertex="1" parent="1">
          <mxGeometry x="630" y="280" width="360" height="30" as="geometry" />
        </mxCell>
        <mxCell id="EaDXwgWP2bAekZSx6mFR-35" style="edgeStyle=orthogonalEdgeStyle;rounded=0;orthogonalLoop=1;jettySize=auto;html=1;" edge="1" parent="1" source="EaDXwgWP2bAekZSx6mFR-29" target="EaDXwgWP2bAekZSx6mFR-32">
          <mxGeometry relative="1" as="geometry" />
        </mxCell>
        <mxCell id="EaDXwgWP2bAekZSx6mFR-39" value="erp_loc_a101" style="swimlane;fontStyle=0;childLayout=stackLayout;horizontal=1;startSize=30;horizontalStack=0;resizeParent=1;resizeParentMax=0;resizeLast=0;collapsible=1;marginBottom=0;whiteSpace=wrap;html=1;rounded=1;fillColor=#a0522d;fontColor=#ffffff;strokeColor=#FFCCCC;fontSize=24;" vertex="1" parent="1">
          <mxGeometry x="712.5" y="420" width="230" height="70" as="geometry" />
        </mxCell>
        <mxCell id="EaDXwgWP2bAekZSx6mFR-40" value="cid" style="text;strokeColor=none;fillColor=none;align=left;verticalAlign=middle;spacingLeft=4;spacingRight=4;overflow=hidden;points=[[0,0.5],[1,0.5]];portConstraint=eastwest;rotatable=0;whiteSpace=wrap;html=1;fontSize=24;" vertex="1" parent="EaDXwgWP2bAekZSx6mFR-39">
          <mxGeometry y="30" width="230" height="40" as="geometry" />
        </mxCell>
        <mxCell id="EaDXwgWP2bAekZSx6mFR-41" value="&lt;span style=&quot;font-size: 20px;&quot;&gt;Location of Customers(Country)&lt;/span&gt;" style="text;html=1;align=center;verticalAlign=middle;whiteSpace=wrap;rounded=0;fillColor=none;fontColor=#ffffff;strokeColor=none;" vertex="1" parent="1">
          <mxGeometry x="640" y="390" width="360" height="30" as="geometry" />
        </mxCell>
        <mxCell id="EaDXwgWP2bAekZSx6mFR-43" style="edgeStyle=orthogonalEdgeStyle;rounded=0;orthogonalLoop=1;jettySize=auto;html=1;" edge="1" parent="1" source="EaDXwgWP2bAekZSx6mFR-29" target="EaDXwgWP2bAekZSx6mFR-40">
          <mxGeometry relative="1" as="geometry" />
        </mxCell>
        <mxCell id="EaDXwgWP2bAekZSx6mFR-44" value="erp_px_cat_g1v2" style="swimlane;fontStyle=0;childLayout=stackLayout;horizontal=1;startSize=30;horizontalStack=0;resizeParent=1;resizeParentMax=0;resizeLast=0;collapsible=1;marginBottom=0;whiteSpace=wrap;html=1;rounded=1;fillColor=#a0522d;fontColor=#ffffff;strokeColor=#FFCCCC;fontSize=24;" vertex="1" parent="1">
          <mxGeometry x="715" y="170" width="230" height="70" as="geometry" />
        </mxCell>
        <mxCell id="EaDXwgWP2bAekZSx6mFR-45" value="id" style="text;strokeColor=none;fillColor=none;align=left;verticalAlign=middle;spacingLeft=4;spacingRight=4;overflow=hidden;points=[[0,0.5],[1,0.5]];portConstraint=eastwest;rotatable=0;whiteSpace=wrap;html=1;fontSize=24;" vertex="1" parent="EaDXwgWP2bAekZSx6mFR-44">
          <mxGeometry y="30" width="230" height="40" as="geometry" />
        </mxCell>
        <mxCell id="EaDXwgWP2bAekZSx6mFR-46" value="&lt;span style=&quot;font-size: 20px;&quot;&gt;Product Categories&lt;/span&gt;" style="text;html=1;align=center;verticalAlign=middle;whiteSpace=wrap;rounded=0;fillColor=none;fontColor=#ffffff;strokeColor=none;" vertex="1" parent="1">
          <mxGeometry x="642.5" y="140" width="360" height="30" as="geometry" />
        </mxCell>
        <mxCell id="EaDXwgWP2bAekZSx6mFR-48" value="" style="rounded=1;whiteSpace=wrap;html=1;fillColor=none;dashed=1;" vertex="1" parent="1">
          <mxGeometry x="-106.25" y="95" width="622.5" height="400" as="geometry" />
        </mxCell>
        <mxCell id="EaDXwgWP2bAekZSx6mFR-49" value="&lt;font style=&quot;font-size: 35px; color: rgb(0, 0, 0);&quot;&gt;&lt;b&gt;CRM&lt;/b&gt;&lt;/font&gt;" style="rounded=1;whiteSpace=wrap;html=1;fillColor=#dae8fc;gradientColor=#7ea6e0;strokeColor=#6c8ebf;" vertex="1" parent="1">
          <mxGeometry x="60" y="50" width="290" height="60" as="geometry" />
        </mxCell>
        <mxCell id="EaDXwgWP2bAekZSx6mFR-53" style="edgeStyle=orthogonalEdgeStyle;rounded=0;orthogonalLoop=1;jettySize=auto;html=1;" edge="1" parent="1" source="EaDXwgWP2bAekZSx6mFR-45" target="EaDXwgWP2bAekZSx6mFR-18">
          <mxGeometry relative="1" as="geometry">
            <mxPoint x="550.800048828125" y="200" as="targetPoint" />
          </mxGeometry>
        </mxCell>
        <mxCell id="EaDXwgWP2bAekZSx6mFR-54" value="" style="rounded=1;whiteSpace=wrap;html=1;fillColor=none;dashed=1;" vertex="1" parent="1">
          <mxGeometry x="540" y="95" width="622.5" height="400" as="geometry" />
        </mxCell>
        <mxCell id="EaDXwgWP2bAekZSx6mFR-55" value="&lt;font style=&quot;font-size: 35px; color: rgb(0, 0, 0);&quot;&gt;&lt;b&gt;ERP&lt;/b&gt;&lt;/font&gt;" style="rounded=1;whiteSpace=wrap;html=1;fillColor=#dae8fc;gradientColor=#7ea6e0;strokeColor=#6c8ebf;" vertex="1" parent="1">
          <mxGeometry x="720" y="50" width="290" height="60" as="geometry" />
        </mxCell>
        <mxCell id="EaDXwgWP2bAekZSx6mFR-56" value="&lt;font style=&quot;font-size: 40px;&quot;&gt;Integration Model&lt;/font&gt;" style="text;html=1;align=center;verticalAlign=middle;whiteSpace=wrap;rounded=0;" vertex="1" parent="1">
          <mxGeometry x="-640" y="-10" width="460" height="30" as="geometry" />
        </mxCell>
        <mxCell id="EaDXwgWP2bAekZSx6mFR-57" value="(How to tables are realated)" style="text;html=1;align=center;verticalAlign=middle;whiteSpace=wrap;rounded=0;" vertex="1" parent="1">
          <mxGeometry x="-265" width="180" height="30" as="geometry" />
        </mxCell>
      </root>
    </mxGraphModel>
  </diagram>
</mxfile>
